# xmcd
#
# Track frame offsets:
#	150
#	10413
#	19383
#	25313
#	34049
#	46738
#	57392
#	70102
#	80576
#	91532
#	102925
#	111630
#	122375
#	133692
#
# Disc length: 1954 seconds
#
# Revision: 0
# Processed by: cddbd v1.4PL0 Copyright (c) Steve Scherf et al.
# Submitted via: dBpowerAMP V4.0
#
DISCID=b307a00e
DTITLE=Patsy Cline - Crazy - Disk 1
DYEAR=2000
DGENRE=Country
TTITLE0=Crazy
TTITLE1=I Fall To Pieces
TTITLE2=San Antonio Rose
TTITLE3=I Love You So Much It Hurts
TTITLE4=Yes, I Understand
TTITLE5=Gotta Lot Of Rhythm In My Soul 
TTITLE6=Just A Closer Walk With Thee
TTITLE7=Lovesick Blues
TTITLE8=There She Goes
TTITLE9=Crazy Dreams
TTITLE10=Ain't No Wheels On This Ship
TTITLE11=I Can See An Angel
TTITLE12=Just Out Of Reach
TTITLE13=Life's Railway To Heaven
EXTD=Patsy Cline -  Crazy - Disk 1
EXTT0=
EXTT1=
EXTT2=
EXTT3=
EXTT4=
EXTT5=
EXTT6=
EXTT7=
EXTT8=
EXTT9=
EXTT10=
EXTT11=
EXTT12=
EXTT13=
PLAYORDER=
